<?xml version="1.0" standalone="no"?>
<!DOCTYPE svg PUBLIC "-//W3C//DTD SVG 20010904//EN"
 "http://www.w3.org/TR/2001/REC-SVG-20010904/DTD/svg10.dtd">
<svg version="1.0" xmlns="http://www.w3.org/2000/svg"
 width="200.000000pt" height="200.000000pt" viewBox="0 0 200.000000 200.000000"
 preserveAspectRatio="xMidYMid meet">
<metadata>
Created by potrace 1.10, written by Peter Selinger 2001-2011
</metadata>
<g transform="translate(0.000000,200.000000) scale(0.100000,-0.100000)"
fill="#FFFFFF" stroke="none">
<path d="M305 1701 c-48 -22 -69 -44 -90 -94 -20 -48 -19 -93 4 -143 29 -63
77 -94 163 -105 105 -13 126 -18 196 -50 156 -70 263 -181 304 -313 18 -57 23
-94 22 -186 0 -120 0 -120 -70 -300 -20 -53 -14 -102 19 -150 36 -54 70 -73
136 -78 71 -5 122 19 160 74 39 56 40 121 3 202 -45 96 -55 158 -50 291 6 133
26 200 86 280 83 110 236 201 372 221 112 17 146 28 180 56 42 36 62 79 62
134 0 140 -158 224 -274 146 -18 -12 -50 -48 -72 -80 -54 -78 -131 -139 -245
-194 -85 -42 -102 -46 -182 -50 -69 -3 -102 0 -156 16 -130 40 -257 133 -331
242 -62 91 -150 121 -237 81z"/>
</g>
</svg>